REM DIRINDEX 1\2\4,1\2\5,1\2\6,1\3\7,1\3\8
REM DIRNAME folder01,folder02,folder03,folder04,folder05,folder06,folder07,folder08
TITLE ""
FILE "025_Lesson 21_Output_Stage.mp3" MP3
  TRACK 01 AUDIO
    TITLE "0:"
    INDEX 01 00:00:00
  TRACK 02 AUDIO
    TITLE "6:cjc128_1510"
    INDEX 01 00:00:09
  TRACK 03 AUDIO
    TITLE "0:"
    INDEX 01 00:03:27
  TRACK 04 AUDIO
    TITLE "6:cjc128_1511"
    INDEX 01 00:04:05
  TRACK 05 AUDIO
    TITLE "0:"
    INDEX 01 00:06:12
  TRACK 06 AUDIO
    TITLE "4:cjc128_1512"
    INDEX 01 00:06:71
  TRACK 07 AUDIO
    TITLE "0:"
    INDEX 01 00:09:44
  TRACK 08 AUDIO
    TITLE "5:cjc128_1513"
    INDEX 01 00:12:73
  TRACK 09 AUDIO
    TITLE "0:"
    INDEX 01 00:15:42
  TRACK 10 AUDIO
    TITLE "6:cjc128_1514"
    INDEX 01 00:16:28
  TRACK 11 AUDIO
    TITLE "0:"
    INDEX 01 00:18:35
  TRACK 12 AUDIO
    TITLE "4:cjc128_1515"
    INDEX 01 00:19:26
  TRACK 13 AUDIO
    TITLE "0:"
    INDEX 01 00:23:69
  TRACK 14 AUDIO
    TITLE "5:cjc128_1516"
    INDEX 01 00:28:15
  TRACK 15 AUDIO
    TITLE "0:"
    INDEX 01 00:31:61
  TRACK 16 AUDIO
    TITLE "6:cjc128_1517"
    INDEX 01 00:32:47
  TRACK 17 AUDIO
    TITLE "0:"
    INDEX 01 00:34:38
  TRACK 18 AUDIO
    TITLE "4:cjc128_1518"
    INDEX 01 00:35:27
  TRACK 19 AUDIO
    TITLE "0:"
    INDEX 01 00:38:24
  TRACK 20 AUDIO
    TITLE "5:cjc128_1519"
    INDEX 01 00:42:25
  TRACK 21 AUDIO
    TITLE "0:"
    INDEX 01 00:45:41
  TRACK 22 AUDIO
    TITLE "6:cjc128_1520"
    INDEX 01 00:46:29
  TRACK 23 AUDIO
    TITLE "0:"
    INDEX 01 00:48:30
  TRACK 24 AUDIO
    TITLE "4:cjc128_1521"
    INDEX 01 00:49:18
  TRACK 25 AUDIO
    TITLE "0:"
    INDEX 01 00:53:11
  TRACK 26 AUDIO
    TITLE "5:cjc128_1522"
    INDEX 01 00:57:05
  TRACK 27 AUDIO
    TITLE "0:"
    INDEX 01 01:00:29
  TRACK 28 AUDIO
    TITLE "6:cjc128_1523"
    INDEX 01 01:01:09
  TRACK 29 AUDIO
    TITLE "0:"
    INDEX 01 01:02:38
  TRACK 30 AUDIO
    TITLE "4:cjc128_1524"
    INDEX 01 01:03:33
  TRACK 31 AUDIO
    TITLE "0:"
    INDEX 01 01:07:08
  TRACK 32 AUDIO
    TITLE "5:cjc128_1525"
    INDEX 01 01:10:08
  TRACK 33 AUDIO
    TITLE "0:"
    INDEX 01 01:12:66
  TRACK 34 AUDIO
    TITLE "6:cjc128_1526"
    INDEX 01 01:13:44
  TRACK 35 AUDIO
    TITLE "0:"
    INDEX 01 01:15:35
  TRACK 36 AUDIO
    TITLE "4:cjc128_1527"
    INDEX 01 01:16:26
  TRACK 37 AUDIO
    TITLE "0:"
    INDEX 01 01:19:54
  TRACK 38 AUDIO
    TITLE "5:cjc128_1528"
    INDEX 01 01:23:22
  TRACK 39 AUDIO
    TITLE "0:"
    INDEX 01 01:26:27
  TRACK 40 AUDIO
    TITLE "6:cjc128_1529"
    INDEX 01 01:27:06
  TRACK 41 AUDIO
    TITLE "0:"
    INDEX 01 01:28:69
  TRACK 42 AUDIO
    TITLE "4:cjc128_1530"
    INDEX 01 01:29:58
  TRACK 43 AUDIO
    TITLE "0:"
    INDEX 01 01:32:74
  TRACK 44 AUDIO
    TITLE "5:cjc128_1531"
    INDEX 01 01:37:05
  TRACK 45 AUDIO
    TITLE "0:"
    INDEX 01 01:40:29
  TRACK 46 AUDIO
    TITLE "6:cjc128_1532"
    INDEX 01 01:41:09
  TRACK 47 AUDIO
    TITLE "0:"
    INDEX 01 01:43:03
  TRACK 48 AUDIO
    TITLE "4:cjc128_1533"
    INDEX 01 01:43:62
  TRACK 49 AUDIO
    TITLE "0:"
    INDEX 01 01:48:09
  TRACK 50 AUDIO
    TITLE "5:cjc128_1534"
    INDEX 01 01:52:10
  TRACK 51 AUDIO
    TITLE "0:"
    INDEX 01 01:55:32
  TRACK 52 AUDIO
    TITLE "6:cjc128_1535"
    INDEX 01 01:56:24
  TRACK 53 AUDIO
    TITLE "0:"
    INDEX 01 01:58:09
  TRACK 54 AUDIO
    TITLE "4:cjc128_1536"
    INDEX 01 01:59:03
  TRACK 55 AUDIO
    TITLE "0:"
    INDEX 01 02:03:20
  TRACK 56 AUDIO
    TITLE "5:cjc128_1537"
    INDEX 01 02:07:12
  TRACK 57 AUDIO
    TITLE "0:"
    INDEX 01 02:10:40
  TRACK 58 AUDIO
    TITLE "6:cjc128_1538"
    INDEX 01 02:11:31
  TRACK 59 AUDIO
    TITLE "0:"
    INDEX 01 02:13:20
  TRACK 60 AUDIO
    TITLE "4:cjc128_1539"
    INDEX 01 02:14:10
  TRACK 61 AUDIO
    TITLE "0:"
    INDEX 01 02:16:44
  TRACK 62 AUDIO
    TITLE "5:cjc128_1540"
    INDEX 01 02:20:58
  TRACK 63 AUDIO
    TITLE "0:"
    INDEX 01 02:24:14
  TRACK 64 AUDIO
    TITLE "6:cjc128_1541"
    INDEX 01 02:25:02
  TRACK 65 AUDIO
    TITLE "0:"
    INDEX 01 02:26:60
  TRACK 66 AUDIO
    TITLE "4:cjc128_1542"
    INDEX 01 02:27:42
  TRACK 67 AUDIO
    TITLE "0:"
    INDEX 01 02:31:46
  TRACK 68 AUDIO
    TITLE "5:cjc128_1543"
    INDEX 01 02:36:49
  TRACK 69 AUDIO
    TITLE "0:"
    INDEX 01 02:40:70
  TRACK 70 AUDIO
    TITLE "6:cjc128_1544"
    INDEX 01 02:41:52
  TRACK 71 AUDIO
    TITLE "0:"
    INDEX 01 02:43:41
  TRACK 72 AUDIO
    TITLE "4:cjc128_1545"
    INDEX 01 02:44:27
  TRACK 73 AUDIO
    TITLE "0:"
    INDEX 01 02:46:65
  TRACK 74 AUDIO
    TITLE "5:cjc128_1546"
    INDEX 01 02:50:35
  TRACK 75 AUDIO
    TITLE "0:"
    INDEX 01 02:53:30
  TRACK 76 AUDIO
    TITLE "6:cjc128_1547"
    INDEX 01 02:54:15
  TRACK 77 AUDIO
    TITLE "0:"
    INDEX 01 02:55:66
  TRACK 78 AUDIO
    TITLE "4:cjc128_1548"
    INDEX 01 02:56:57
  TRACK 79 AUDIO
    TITLE "0:"
    INDEX 01 02:59:73
  TRACK 80 AUDIO
    TITLE "5:cjc128_1549"
    INDEX 01 03:04:06
  TRACK 81 AUDIO
    TITLE "0:"
    INDEX 01 03:07:38
  TRACK 82 AUDIO
    TITLE "6:cjc128_1550"
    INDEX 01 03:08:21
  TRACK 83 AUDIO
    TITLE "0:"
    INDEX 01 03:10:06
  TRACK 84 AUDIO
    TITLE "4:cjc128_1551"
    INDEX 01 03:10:69
  TRACK 85 AUDIO
    TITLE "0:"
    INDEX 01 03:14:12
  TRACK 86 AUDIO
    TITLE "5:cjc128_1552"
    INDEX 01 03:17:20
  TRACK 87 AUDIO
    TITLE "0:"
    INDEX 01 03:19:68
  TRACK 88 AUDIO
    TITLE "6:cjc128_1553"
    INDEX 01 03:20:46
  TRACK 89 AUDIO
    TITLE "0:"
    INDEX 01 03:22:19
  TRACK 90 AUDIO
    TITLE "4:cjc128_1554"
    INDEX 01 03:23:09
  TRACK 91 AUDIO
    TITLE "0:"
    INDEX 01 03:26:33
  TRACK 92 AUDIO
    TITLE "5:cjc128_1555"
    INDEX 01 03:30:58
  TRACK 93 AUDIO
    TITLE "0:"
    INDEX 01 03:34:32
  TRACK 94 AUDIO
    TITLE "6:cjc128_1556"
    INDEX 01 03:35:18
  TRACK 95 AUDIO
    TITLE "0:"
    INDEX 01 03:36:71
  TRACK 96 AUDIO
    TITLE "4:cjc128_1557"
    INDEX 01 03:37:62
  TRACK 97 AUDIO
    TITLE "0:"
    INDEX 01 03:41:17
  TRACK 98 AUDIO
    TITLE "5:cjc128_1558"
    INDEX 01 03:45:03
  TRACK 99 AUDIO
    TITLE "0:"
    INDEX 01 03:47:68
  TRACK 100 AUDIO
    TITLE "6:cjc128_1559"
    INDEX 01 03:48:56
  TRACK 101 AUDIO
    TITLE "0:"
    INDEX 01 03:50:37
  TRACK 102 AUDIO
    TITLE "4:cjc128_1560"
    INDEX 01 03:51:29
  TRACK 103 AUDIO
    TITLE "0:"
    INDEX 01 03:55:25
  TRACK 104 AUDIO
    TITLE "5:cjc128_1561"
    INDEX 01 03:59:11
  TRACK 105 AUDIO
    TITLE "0:"
    INDEX 01 04:02:13
  TRACK 106 AUDIO
    TITLE "6:cjc128_1562"
    INDEX 01 04:02:66
  TRACK 107 AUDIO
    TITLE "0:"
    INDEX 01 04:04:63
  TRACK 108 AUDIO
    TITLE "4:cjc128_1563"
    INDEX 01 04:05:49
  TRACK 109 AUDIO
    TITLE "0:"
    INDEX 01 04:09:05
  TRACK 110 AUDIO
    TITLE "5:cjc128_1564"
    INDEX 01 04:13:70
  TRACK 111 AUDIO
    TITLE "0:"
    INDEX 01 04:17:66
  TRACK 112 AUDIO
    TITLE "6:cjc128_1565"
    INDEX 01 04:18:55
  TRACK 113 AUDIO
    TITLE "0:"
    INDEX 01 04:20:50
  TRACK 114 AUDIO
    TITLE "4:cjc128_1566"
    INDEX 01 04:21:38
  TRACK 115 AUDIO
    TITLE "0:"
    INDEX 01 04:24:50
  TRACK 116 AUDIO
    TITLE "5:cjc128_1567"
    INDEX 01 04:28:42
  TRACK 117 AUDIO
    TITLE "0:"
    INDEX 01 04:31:70
  TRACK 118 AUDIO
    TITLE "6:cjc128_1568"
    INDEX 01 04:32:53
  TRACK 119 AUDIO
    TITLE "0:"
    INDEX 01 04:34:52
  TRACK 120 AUDIO
    TITLE "4:cjc128_1569"
    INDEX 01 04:35:40
  TRACK 121 AUDIO
    TITLE "0:"
    INDEX 01 04:38:52
  TRACK 122 AUDIO
    TITLE "5:cjc128_1570"
    INDEX 01 04:42:34
  TRACK 123 AUDIO
    TITLE "0:"
    INDEX 01 04:45:50
  TRACK 124 AUDIO
    TITLE "6:cjc128_1571"
    INDEX 01 04:46:32
  TRACK 125 AUDIO
    TITLE "0:"
    INDEX 01 04:48:31
  TRACK 126 AUDIO
    TITLE "4:cjc128_1572"
    INDEX 01 04:49:19
  TRACK 127 AUDIO
    TITLE "0:"
    INDEX 01 04:52:60
  TRACK 128 AUDIO
    TITLE "5:cjc128_1573"
    INDEX 01 04:56:32
  TRACK 129 AUDIO
    TITLE "0:"
    INDEX 01 04:59:46
  TRACK 130 AUDIO
    TITLE "6:cjc128_1574"
    INDEX 01 05:00:20
  TRACK 131 AUDIO
    TITLE "0:"
    INDEX 01 05:02:29
  TRACK 132 AUDIO
    TITLE "4:cjc128_1575"
    INDEX 01 05:03:11
  TRACK 133 AUDIO
    TITLE "0:"
    INDEX 01 05:07:11
  TRACK 134 AUDIO
    TITLE "5:cjc128_1576"
    INDEX 01 05:10:74
  TRACK 135 AUDIO
    TITLE "0:"
    INDEX 01 05:14:13
